<svg class="marks" width="1417.9" height="758" viewBox="0 0 1417.9 758" version="1.1" xmlns="http://www.w3.org/2000/svg" xmlns:xlink="http://www.w3.org/1999/xlink"><g transform="translate(0,0)"><g class="mark-group role-frame root"><g transform="translate(0,0)"><path class="background" d="M0,0h1417.9v758h-1417.9Z" style="fill: none;"></path><g><g class="mark-path role-mark" style="pointer-events: none;"><path transform="translate(0,0)" d="M563.9064982585754,594.0184715286313C563.9064982585754,558.0024043940316 540.8692710324975,558.0024043940316 540.8692710324975,521.986337259432" style="fill: none; stroke: #ccc; stroke-width: 0.5;"></path><path transform="translate(0,0)" d="M662.8743963829467,737.9247869844787C662.8743963829467,665.9716292565549 563.9064982585754,665.9716292565549 563.9064982585754,594.0184715286313" style="fill: none; stroke: #ccc; stroke-width: 0.5;"></path><path transform="translate(0,0)" d="M394.90679917564546,594.0068031814787C394.90679917564546,557.9813587740759 379.899453829846,557.9813587740759 379.899453829846,521.9559143666731" style="fill: none; stroke: #ccc; stroke-width: 0.5;"></path><path transform="translate(0,0)" d="M95.0204611944435,234.1066746154342C95.0204611944435,198.04563143983714 97.91042517309488,198.04563143983714 97.91042517309488,161.98458826424007" style="fill: none; stroke: #ccc; stroke-width: 0.5;"></path><path transform="translate(0,0)" d="M662.8743963829467,737.9247869844787C662.8743963829467,486.0157307999565 95.0204611944435,486.0157307999565 95.0204611944435,234.1066746154342" style="fill: none; stroke: #ccc; stroke-width: 0.5;"></path><path transform="translate(0,0)" d="M662.8743963829467,737.9247869844787C662.8743963829467,701.9633905406388 568.8801180147925,701.9633905406388 568.8801180147925,666.001994096799" style="fill: none; stroke: #ccc; stroke-width: 0.5;"></path><path transform="translate(0,0)" d="M662.8743963829467,737.9247869844787C662.8743963829467,701.9657953675871 394.9468697225306,701.9657953675871 394.9468697225306,666.0068037506957" style="fill: none; stroke: #ccc; stroke-width: 0.5;"></path><path transform="translate(0,0)" d="M762.9346977183895,378.00783478415866C762.9346977183895,342.0021392730665 728.8432872674084,342.0021392730665 728.8432872674084,305.99644376197443" style="fill: none; stroke: #ccc; stroke-width: 0.5;"></path><path transform="translate(0,0)" d="M907.8587605254586,594.0115605354457C907.8587605254586,522.0078660358461 1065.8163871710005,522.0078660358461 1065.8163871710005,450.00417153624653" style="fill: none; stroke: #ccc; stroke-width: 0.5;"></path><path transform="translate(0,0)" d="M662.8743963829467,737.9247869844787C662.8743963829467,665.9681737599622 907.8587605254586,665.9681737599622 907.8587605254586,594.0115605354457" style="fill: none; stroke: #ccc; stroke-width: 0.5;"></path><path transform="translate(0,0)" d="M1010.8645295757248,665.9854636914205C1010.8645295757248,558.0000748871769 1297.745158259883,558.0000748871769 1297.745158259883,450.01468608293334" style="fill: none; stroke: #ccc; stroke-width: 0.5;"></path><path transform="translate(0,0)" d="M662.8743963829467,737.9247869844787C662.8743963829467,701.9551253379495 1010.8645295757248,701.9551253379495 1010.8645295757248,665.9854636914205" style="fill: none; stroke: #ccc; stroke-width: 0.5;"></path><path transform="translate(0,0)" d="M849.8509613118057,522.0388967360109C849.8509613118057,486.0165823919629 857.872319741887,486.0165823919629 857.872319741887,449.99426804791494" style="fill: none; stroke: #ccc; stroke-width: 0.5;"></path><path transform="translate(0,0)" d="M662.8743963829467,737.9247869844787C662.8743963829467,629.9818418602448 849.8509613118057,629.9818418602448 849.8509613118057,522.0388967360109" style="fill: none; stroke: #ccc; stroke-width: 0.5;"></path><path transform="translate(0,0)" d="M540.8692710324975,521.986337259432C540.8692710324975,485.98788798054477 285.9516242849339,485.98788798054477 285.9516242849339,449.98943870165755" style="fill: none; stroke: #ccc; stroke-width: 0.5;"></path><path transform="translate(0,0)" d="M379.899453829846,521.9559143666731C379.899453829846,485.9726765341653 285.9516242849339,485.9726765341653 285.9516242849339,449.98943870165755" style="fill: none; stroke: #ccc; stroke-width: 0.5;"></path><path transform="translate(0,0)" d="M667.8516816012392,450.0086646071149C667.8516816012392,414.0082496956368 762.9346977183895,414.0082496956368 762.9346977183895,378.00783478415866" style="fill: none; stroke: #ccc; stroke-width: 0.5;"></path><path transform="translate(0,0)" d="M857.872319741887,449.99426804791494C857.872319741887,414.00105141603683 762.9346977183895,414.00105141603683 762.9346977183895,378.00783478415866" style="fill: none; stroke: #ccc; stroke-width: 0.5;"></path><path transform="translate(0,0)" d="M1297.745158259883,450.01468608293334C1297.745158259883,414.011260433546 762.9346977183895,414.011260433546 762.9346977183895,378.00783478415866" style="fill: none; stroke: #ccc; stroke-width: 0.5;"></path><path transform="translate(0,0)" d="M1065.8163871710005,450.00417153624653C1065.8163871710005,414.00600316020257 762.9346977183895,414.00600316020257 762.9346977183895,378.00783478415866" style="fill: none; stroke: #ccc; stroke-width: 0.5;"></path><path transform="translate(0,0)" d="M540.8692710324975,521.986337259432C540.8692710324975,485.9975009332735 667.8516816012392,485.9975009332735 667.8516816012392,450.0086646071149" style="fill: none; stroke: #ccc; stroke-width: 0.5;"></path><path transform="translate(0,0)" d="M379.899453829846,521.9559143666731C379.899453829846,485.98228948689405 667.8516816012392,485.98228948689405 667.8516816012392,450.0086646071149" style="fill: none; stroke: #ccc; stroke-width: 0.5;"></path><path transform="translate(0,0)" d="M540.8692710324975,521.986337259432C540.8692710324975,485.9872885315051 379.91846977537784,485.9872885315051 379.91846977537784,449.9882398035781" style="fill: none; stroke: #ccc; stroke-width: 0.5;"></path><path transform="translate(0,0)" d="M379.899453829846,521.9559143666731C379.899453829846,485.97207708512565 379.91846977537784,485.97207708512565 379.91846977537784,449.9882398035781" style="fill: none; stroke: #ccc; stroke-width: 0.5;"></path><path transform="translate(0,0)" d="M394.9468697225306,666.0068037506957C394.9468697225306,630.0068034660871 394.90679917564546,630.0068034660871 394.90679917564546,594.0068031814787" style="fill: none; stroke: #ccc; stroke-width: 0.5;"></path><path transform="translate(0,0)" d="M568.8801180147925,666.001994096799C568.8801180147925,630.0043986391388 394.90679917564546,630.0043986391388 394.90679917564546,594.0068031814787" style="fill: none; stroke: #ccc; stroke-width: 0.5;"></path><path transform="translate(0,0)" d="M97.91042517309488,161.98458826424007C97.91042517309488,90.0356596956207 217.92295983964797,90.0356596956207 217.92295983964797,18.08673112700133" style="fill: none; stroke: #ccc; stroke-width: 0.5;"></path><path transform="translate(0,0)" d="M379.899453829846,521.9559143666731C379.899453829846,270.02132274683726 217.92295983964797,270.02132274683726 217.92295983964797,18.08673112700133" style="fill: none; stroke: #ccc; stroke-width: 0.5;"></path><path transform="translate(0,0)" d="M448.8544140913093,89.99555450328253C448.8544140913093,54.04114281514193 217.92295983964797,54.04114281514193 217.92295983964797,18.08673112700133" style="fill: none; stroke: #ccc; stroke-width: 0.5;"></path><path transform="translate(0,0)" d="M465.8894845082014,162.0034581947556C465.8894845082014,125.99950634901907 448.8544140913093,125.99950634901907 448.8544140913093,89.99555450328253" style="fill: none; stroke: #ccc; stroke-width: 0.5;"></path><path transform="translate(0,0)" d="M473.90464070858513,234.04675123413782C473.90464070858513,198.0251047144467 465.8894845082014,198.0251047144467 465.8894845082014,162.0034581947556" style="fill: none; stroke: #ccc; stroke-width: 0.5;"></path><path transform="translate(0,0)" d="M379.91846977537784,449.9882398035781C379.91846977537784,342.01749551885797 473.90464070858513,342.01749551885797 473.90464070858513,234.04675123413782" style="fill: none; stroke: #ccc; stroke-width: 0.5;"></path><path transform="translate(0,0)" d="M762.9346977183895,378.00783478415866C762.9346977183895,306.02729300914825 473.90464070858513,306.02729300914825 473.90464070858513,234.04675123413782" style="fill: none; stroke: #ccc; stroke-width: 0.5;"></path><path transform="translate(0,0)" d="M728.8432872674084,305.99644376197443C728.8432872674084,270.0215974980561 473.90464070858513,270.0215974980561 473.90464070858513,234.04675123413782" style="fill: none; stroke: #ccc; stroke-width: 0.5;"></path><path transform="translate(0,0)" d="M285.9516242849339,449.98943870165755C285.9516242849339,342.0180949678977 473.90464070858513,342.0180949678977 473.90464070858513,234.04675123413782" style="fill: none; stroke: #ccc; stroke-width: 0.5;"></path><path transform="translate(0,0)" d="M497.87805431773234,449.98869984920333C497.87805431773234,342.0177255416706 473.90464070858513,342.0177255416706 473.90464070858513,234.04675123413782" style="fill: none; stroke: #ccc; stroke-width: 0.5;"></path><path transform="translate(0,0)" d="M540.8692710324975,521.986337259432C540.8692710324975,485.9875185543177 497.87805431773234,485.9875185543177 497.87805431773234,449.98869984920333" style="fill: none; stroke: #ccc; stroke-width: 0.5;"></path><path transform="translate(0,0)" d="M379.899453829846,521.9559143666731C379.899453829846,485.97230710793826 497.87805431773234,485.97230710793826 497.87805431773234,449.98869984920333" style="fill: none; stroke: #ccc; stroke-width: 0.5;"></path></g><g class="mark-symbol role-mark nodes"><path transform="translate(540.8692710324975,521.986337259432)" d="M5,0A5,5,0,1,1,-5,0A5,5,0,1,1,5,0" style="fill: #3182bd;"></path><path transform="translate(563.9064982585754,594.0184715286313)" d="M5,0A5,5,0,1,1,-5,0A5,5,0,1,1,5,0" style="fill: #6baed6;"></path><path transform="translate(379.899453829846,521.9559143666731)" d="M5,0A5,5,0,1,1,-5,0A5,5,0,1,1,5,0" style="fill: #9ecae1;"></path><path transform="translate(97.91042517309488,161.98458826424007)" d="M5,0A5,5,0,1,1,-5,0A5,5,0,1,1,5,0" style="fill: #c6dbef;"></path><path transform="translate(95.0204611944435,234.1066746154342)" d="M5,0A5,5,0,1,1,-5,0A5,5,0,1,1,5,0" style="fill: #e6550d;"></path><path transform="translate(662.8743963829467,737.9247869844787)" d="M5,0A5,5,0,1,1,-5,0A5,5,0,1,1,5,0" style="fill: #fd8d3c;"></path><path transform="translate(568.8801180147925,666.001994096799)" d="M5,0A5,5,0,1,1,-5,0A5,5,0,1,1,5,0" style="fill: #fdae6b;"></path><path transform="translate(394.9468697225306,666.0068037506957)" d="M5,0A5,5,0,1,1,-5,0A5,5,0,1,1,5,0" style="fill: #fdd0a2;"></path><path transform="translate(728.8432872674084,305.99644376197443)" d="M5,0A5,5,0,1,1,-5,0A5,5,0,1,1,5,0" style="fill: #31a354;"></path><path transform="translate(1065.8163871710005,450.00417153624653)" d="M5,0A5,5,0,1,1,-5,0A5,5,0,1,1,5,0" style="fill: #74c476;"></path><path transform="translate(907.8587605254586,594.0115605354457)" d="M5,0A5,5,0,1,1,-5,0A5,5,0,1,1,5,0" style="fill: #a1d99b;"></path><path transform="translate(1297.745158259883,450.01468608293334)" d="M5,0A5,5,0,1,1,-5,0A5,5,0,1,1,5,0" style="fill: #c7e9c0;"></path><path transform="translate(1010.8645295757248,665.9854636914205)" d="M5,0A5,5,0,1,1,-5,0A5,5,0,1,1,5,0" style="fill: #756bb1;"></path><path transform="translate(857.872319741887,449.99426804791494)" d="M5,0A5,5,0,1,1,-5,0A5,5,0,1,1,5,0" style="fill: #9e9ac8;"></path><path transform="translate(849.8509613118057,522.0388967360109)" d="M5,0A5,5,0,1,1,-5,0A5,5,0,1,1,5,0" style="fill: #bcbddc;"></path><path transform="translate(285.9516242849339,449.98943870165755)" d="M5,0A5,5,0,1,1,-5,0A5,5,0,1,1,5,0" style="fill: #dadaeb;"></path><path transform="translate(762.9346977183895,378.00783478415866)" d="M5,0A5,5,0,1,1,-5,0A5,5,0,1,1,5,0" style="fill: #636363;"></path><path transform="translate(667.8516816012392,450.0086646071149)" d="M5,0A5,5,0,1,1,-5,0A5,5,0,1,1,5,0" style="fill: #969696;"></path><path transform="translate(379.91846977537784,449.9882398035781)" d="M5,0A5,5,0,1,1,-5,0A5,5,0,1,1,5,0" style="fill: #bdbdbd;"></path><path transform="translate(394.90679917564546,594.0068031814787)" d="M5,0A5,5,0,1,1,-5,0A5,5,0,1,1,5,0" style="fill: #d9d9d9;"></path><path transform="translate(217.92295983964797,18.08673112700133)" d="M5,0A5,5,0,1,1,-5,0A5,5,0,1,1,5,0" style="fill: #3182bd;"></path><path transform="translate(448.8544140913093,89.99555450328253)" d="M5,0A5,5,0,1,1,-5,0A5,5,0,1,1,5,0" style="fill: #6baed6;"></path><path transform="translate(465.8894845082014,162.0034581947556)" d="M5,0A5,5,0,1,1,-5,0A5,5,0,1,1,5,0" style="fill: #9ecae1;"></path><path transform="translate(473.90464070858513,234.04675123413782)" d="M5,0A5,5,0,1,1,-5,0A5,5,0,1,1,5,0" style="fill: #c6dbef;"></path><path transform="translate(497.87805431773234,449.98869984920333)" d="M5,0A5,5,0,1,1,-5,0A5,5,0,1,1,5,0" style="fill: #e6550d;"></path></g><g class="mark-text role-mark labels"><text text-anchor="start" transform="translate(545.89,517)" style="font-family: sans-serif; font-size: 11px; font-weight: normal; fill: black;">adjmat_plot</text><text text-anchor="start" transform="translate(568.89,589)" style="font-family: sans-serif; font-size: 11px; font-weight: normal; fill: black;">adjmat_plots</text><text text-anchor="start" transform="translate(384.89,517)" style="font-family: sans-serif; font-size: 11px; font-weight: normal; fill: black;">adjmat_to_dot</text><text text-anchor="start" transform="translate(102.892,157)" style="font-family: sans-serif; font-size: 11px; font-weight: normal; fill: black;">adjmat_true_plot</text><text text-anchor="start" transform="translate(99.892,229)" style="font-family: sans-serif; font-size: 11px; font-weight: normal; fill: black;">adjmat_true_plots</text><text text-anchor="start" transform="translate(667.89,733)" style="font-family: sans-serif; font-size: 11px; font-weight: normal; fill: black;">all</text><text text-anchor="start" transform="translate(573.89,661)" style="font-family: sans-serif; font-size: 11px; font-weight: normal; fill: black;">graph_plots</text><text text-anchor="start" transform="translate(399.89,661)" style="font-family: sans-serif; font-size: 11px; font-weight: normal; fill: black;">graph_true_plots</text><text text-anchor="start" transform="translate(733.89,301)" style="font-family: sans-serif; font-size: 11px; font-weight: normal; fill: black;">itsearch</text><text text-anchor="start" transform="translate(1070.9,445)" style="font-family: sans-serif; font-size: 11px; font-weight: normal; fill: black;">mcmc_autocorr_plot</text><text text-anchor="start" transform="translate(912.89,589)" style="font-family: sans-serif; font-size: 11px; font-weight: normal; fill: black;">mcmc_autocorr_plots</text><text text-anchor="start" transform="translate(1302.9,445)" style="font-family: sans-serif; font-size: 11px; font-weight: normal; fill: black;">mcmc_heatmap_plot</text><text text-anchor="start" transform="translate(1015.9,661)" style="font-family: sans-serif; font-size: 11px; font-weight: normal; fill: black;">mcmc_heatmaps</text><text text-anchor="start" transform="translate(862.89,445)" style="font-family: sans-serif; font-size: 11px; font-weight: normal; fill: black;">mcmc_traj_plot</text><text text-anchor="start" transform="translate(854.89,517)" style="font-family: sans-serif; font-size: 11px; font-weight: normal; fill: black;">mcmc_traj_plots</text><text text-anchor="start" transform="translate(290.89,445)" style="font-family: sans-serif; font-size: 11px; font-weight: normal; fill: black;">mmhc</text><text text-anchor="start" transform="translate(767.89,373)" style="font-family: sans-serif; font-size: 11px; font-weight: normal; fill: black;">order_mcmc</text><text text-anchor="start" transform="translate(672.89,445)" style="font-family: sans-serif; font-size: 11px; font-weight: normal; fill: black;">order_mcmc_est</text><text text-anchor="start" transform="translate(384.89,445)" style="font-family: sans-serif; font-size: 11px; font-weight: normal; fill: black;">pcalg</text><text text-anchor="start" transform="translate(399.89,589)" style="font-family: sans-serif; font-size: 11px; font-weight: normal; fill: black;">plot_dot</text><text text-anchor="start" transform="translate(222.89,13)" style="font-family: sans-serif; font-size: 11px; font-weight: normal; fill: black;">sample_adjmat</text><text text-anchor="start" transform="translate(453.89,85)" style="font-family: sans-serif; font-size: 11px; font-weight: normal; fill: black;">sample_pcalg_sem_params</text><text text-anchor="start" transform="translate(470.89,157)" style="font-family: sans-serif; font-size: 11px; font-weight: normal; fill: black;">sample_sem_data</text><text text-anchor="start" transform="translate(478.89,229)" style="font-family: sans-serif; font-size: 11px; font-weight: normal; fill: black;">standardize</text><text text-anchor="start" transform="translate(502.89,445)" style="font-family: sans-serif; font-size: 11px; font-weight: normal; fill: black;">tetrad_fges</text></g></g></g></g></g></svg>